<?xml version="1.0" encoding="UTF-8" standalone="no"?>
<!-- Created with Inkscape (http://www.inkscape.org/) -->

<svg
   xmlns:dc="http://purl.org/dc/elements/1.1/"
   xmlns:cc="http://creativecommons.org/ns#"
   xmlns:rdf="http://www.w3.org/1999/02/22-rdf-syntax-ns#"
   xmlns:svg="http://www.w3.org/2000/svg"
   xmlns="http://www.w3.org/2000/svg"
   xmlns:sodipodi="http://sodipodi.sourceforge.net/DTD/sodipodi-0.dtd"
   xmlns:inkscape="http://www.inkscape.org/namespaces/inkscape"
   width="749.72473"
   height="310.24585"
   id="svg4547"
   version="1.1"
   inkscape:version="0.48.5 r10040"
   sodipodi:docname="idir-2.svg"
   inkscape:export-filename="C:\Users\gxz2070xx\Desktop\logo-1.png"
   inkscape:export-xdpi="90"
   inkscape:export-ydpi="90">
  <defs
     id="defs4549" />
  <sodipodi:namedview
     id="base"
     pagecolor="#ffffff"
     bordercolor="#666666"
     borderopacity="1.0"
     inkscape:pageopacity="0"
     inkscape:pageshadow="2"
     inkscape:zoom="1.23"
     inkscape:cx="346.34489"
     inkscape:cy="176.79989"
     inkscape:document-units="px"
     inkscape:current-layer="layer1"
     showgrid="true"
     fit-margin-top="5"
     fit-margin-left="5"
     fit-margin-right="15"
     fit-margin-bottom="20"
     inkscape:window-width="1366"
     inkscape:window-height="706"
     inkscape:window-x="-8"
     inkscape:window-y="-8"
     inkscape:window-maximized="1"
     showguides="false"
     inkscape:showpageshadow="true">
    <inkscape:grid
       type="xygrid"
       id="grid3087"
       empspacing="5"
       visible="true"
       enabled="true"
       snapvisiblegridlinesonly="true"
       originx="-43.2px"
       originy="20.000077px" />
  </sodipodi:namedview>
  <metadata
     id="metadata4552">
    <rdf:RDF>
      <cc:Work
         rdf:about="">
        <dc:format>image/svg+xml</dc:format>
        <dc:type
           rdf:resource="http://purl.org/dc/dcmitype/StillImage" />
        <dc:title></dc:title>
      </cc:Work>
    </rdf:RDF>
  </metadata>
  <g
     inkscape:label="Layer 1"
     inkscape:groupmode="layer"
     id="layer1"
     transform="translate(9.568166,-455.25153)">
    <g
       style="font-size:380px;font-style:normal;font-variant:normal;font-weight:normal;font-stretch:normal;text-align:start;line-height:300%;letter-spacing:0px;word-spacing:0px;writing-mode:lr-tb;text-anchor:start;fill:#0064b1;fill-opacity:1;stroke:none;font-family:Franklin Gothic Demi;-inkscape-font-specification:Franklin Gothic Demi"
       id="text3096"
       transform="translate(14,0)">
      <path
         d="m 175.84375,61.28125 0,46.65625 58.25,0 0,-0.0937 25.0625,0 c 12.49336,2e-4 23.18737,2.61804 32.09375,7.875 8.9061,5.25735 16.34425,14.4188 22.34375,27.46875 5.99918,13.05028 8.99982,27.25536 9,42.59375 -1.8e-4,21.77094 -5.26709,40.73251 -15.78125,56.875 -10.51447,16.14263 -26.57174,24.2188 -48.21875,24.21875 l -24.5,0 0,-122.34375 -58.25,0 0,170 87.1875,0 c 37.60402,0 67.10008,-12.13084 88.5,-36.4375 21.39952,-24.30658 32.12477,-54.60017 32.125,-90.84375 -2.3e-4,-28.82146 -6.12914,-52.66714 -18.375,-71.53125 -12.2463,-18.86372 -26.10045,-32.65406 -41.5625,-41.375 -15.4624,-8.72045 -38.95717,-13.06225 -70.5,-13.0625 l -77.375,0 z"
         transform="translate(-50.768166,430.95217)"
         id="path3905"
         inkscape:connector-curvature="0" />
    </g>
    <text
       xml:space="preserve"
       style="font-size:282.52560425px;font-style:normal;font-variant:normal;font-weight:bold;font-stretch:normal;text-align:start;line-height:125%;letter-spacing:0px;word-spacing:0px;writing-mode:lr-tb;text-anchor:start;fill:#0064b1;fill-opacity:1;stroke:none;font-family:Berlin Sans FB Demi;-inkscape-font-specification:Berlin Sans FB Demi Bold"
       x="4.0101862"
       y="-659.91779"
       id="text4393"
       sodipodi:linespacing="125%"
       transform="scale(1.1448262,-0.87349504)"><tspan
         sodipodi:role="line"
         id="tspan4395"
         x="4.0101862"
         y="-659.91779"
         style="font-size:282.52560425px;font-style:normal;font-variant:normal;font-weight:bold;font-stretch:normal;text-align:start;line-height:125%;writing-mode:lr-tb;text-anchor:start;fill:#0064b1;fill-opacity:1;font-family:Berlin Sans FB Demi;-inkscape-font-specification:Berlin Sans FB Demi Bold">I</tspan></text>
    <path
       sodipodi:type="arc"
       style="fill:#0064b1;fill-opacity:1;stroke:#0064b1;stroke-opacity:1"
       id="path4427"
       sodipodi:cx="327"
       sodipodi:cy="539.86218"
       sodipodi:rx="22"
       sodipodi:ry="12.5"
       d="m 349,539.86218 c 0,6.90356 -9.84974,12.5 -22,12.5 -12.15026,0 -22,-5.59644 -22,-12.5 0,-6.90356 9.84974,-12.5 22,-12.5 12.15026,0 22,5.59644 22,12.5 z"
       transform="matrix(1.8732415,0,0,2.8000015,-181.43149,-986.32941)" />
    <path
       style="fill:#f47f25;display:inline"
       d="m 17.199502,568.92964 c 0.0779,-0.13013 12.637872,-38.66963 13.266782,-40.70745 l 0.258544,-0.83785 -17.646487,-12.81659 -17.646507,-12.81685 21.843451,-0.0745 21.843487,-0.0743 6.723647,-20.69884 c 3.69797,-11.38463 6.744983,-20.67788 6.771037,-20.65167 0.02612,0.0254 2.382855,7.2375 5.237256,16.02522 2.8545,8.78866 5.879537,18.09795 6.722375,20.68765 l 1.532517,4.7096 21.833658,0.0359 21.833568,0.0355 -17.601455,12.77839 c -9.680746,7.02855 -17.60259,12.86829 -17.603977,12.9772 -0.0019,0.1094 2.818597,8.88299 6.26676,19.49666 3.448006,10.61407 6.463023,19.9026 6.700044,20.64066 l 0.430775,1.34402 -1.040961,-0.76668 c -6.474153,-4.7696 -34.206549,-24.82501 -34.326715,-24.82501 -0.117513,0 -31.669802,22.82143 -34.981056,25.30141 -0.277058,0.20788 -0.464636,0.31181 -0.416811,0.23138 z m 19.494817,-16.10603 15.637663,-12.01693 0.100114,-8.42866 c 0.055,-4.63613 0.144949,-9.19472 0.199851,-10.12996 l 0.100292,-1.70092 16.412994,22.40664 c 9.027164,12.32372 16.433006,22.38655 16.457383,22.36242 0.06725,-0.0692 -13.492882,-38.26089 -13.624692,-38.37581 -0.06293,-0.0543 -4.418856,-1.56173 -9.680019,-3.34749 -5.261108,-1.78635 -9.697112,-3.30719 -9.85774,-3.37971 -0.564753,-0.25542 -52.722217,-16.92737 -52.837163,-16.88968 -0.08856,0.0273 32.530439,22.50619 33.276743,22.93041 0.08496,0.0463 4.488405,-1.24895 9.784734,-2.88326 5.29632,-1.63436 9.653281,-2.94862 9.682129,-2.92115 0.02882,0.025 -7.205015,10.12625 -16.075419,22.44028 -8.870421,12.314 -16.185891,22.48674 -16.25669,22.60632 -0.168431,0.28441 -1.218885,1.08245 16.680213,-12.6725 z m 42.507879,-41.23519 c 14.437756,-4.74952 26.302242,-8.68208 26.365522,-8.73861 0.063,-0.0551 -0.72532,-0.0771 -1.75244,-0.0408 -1.02722,0.0326 -10.206476,0.27944 -20.398396,0.54793 -10.910884,0.28764 -18.56757,0.54526 -18.62024,0.62668 -0.04913,0.0771 -2.783934,3.72972 -6.077117,8.11955 l -5.98769,7.98138 -0.08871,-8.94653 c -0.04824,-4.92078 -0.09815,-16.83948 -0.109925,-26.48604 -0.0073,-9.64602 -0.06427,-18.14603 -0.116867,-18.88785 l -0.09541,-1.34898 -5.742795,19.39926 c -3.158515,10.66941 -5.744161,19.4837 -5.745887,19.58701 -0.0054,0.31041 11.686073,16.82601 11.911018,16.82601 0.114381,0 12.020807,-3.88639 26.458561,-8.63664 z"
       id="path3054"
       inkscape:connector-curvature="0" />
    <g
       style="font-size:380px;font-style:normal;font-variant:normal;font-weight:normal;font-stretch:normal;text-align:start;line-height:300%;letter-spacing:0px;word-spacing:0px;writing-mode:lr-tb;text-anchor:start;fill:#0064b1;fill-opacity:1;stroke:none;font-family:Franklin Gothic Demi;-inkscape-font-specification:Franklin Gothic Demi"
       id="text3096-1"
       transform="translate(-6.20025,0)">
      <path
         d="m 575.40625,61.28125 0,45.09375 59.75,0 0.28125,0 34.8125,0 c 13.60663,2.1e-4 22.86444,0.63888 27.8125,1.9375 4.94776,1.29904 9.54411,4.71505 13.75,10.28125 4.20556,5.5666 6.28108,11.8869 6.28125,18.9375 -1.7e-4,7.42204 -2.07569,13.99821 -6.28125,19.75 -4.20589,5.7521 -9.02554,9.48648 -14.40625,11.15625 -5.381,1.67007 -14.00014,2.50015 -25.875,2.5 l -36.375,0 0,-25.9375 -59.75,0 0,169.53125 59.75,0 0,-100.375 42.5,0 38.96875,100.375 65.5,0 -46.75,-111.875 c 29.31619,-13.23555 43.96852,-35.07016 43.96875,-65.5 -2.3e-4,-15.58574 -4.08617,-29.72766 -12.25,-42.46875 C 758.92947,81.94684 748.61894,73.16887 736.1875,68.40625 723.75569,63.64414 707.2837,61.2815 686.75,61.28125 l -111.34375,0 z"
         transform="translate(-50.768166,430.95217)"
         id="path3857"
         inkscape:connector-curvature="0" />
    </g>
    <text
       xml:space="preserve"
       style="font-size:282.52560425px;font-style:normal;font-variant:normal;font-weight:bold;font-stretch:normal;text-align:start;line-height:125%;letter-spacing:0px;word-spacing:0px;writing-mode:lr-tb;text-anchor:start;fill:#0064b1;fill-opacity:1;stroke:none;font-family:Berlin Sans FB Demi;-inkscape-font-specification:Berlin Sans FB Demi Bold"
       x="335.63327"
       y="-659.91833"
       id="text4393-1"
       sodipodi:linespacing="125%"
       transform="scale(1.1448262,-0.87349504)"><tspan
         sodipodi:role="line"
         id="tspan4395-7"
         x="335.63327"
         y="-659.91833"
         style="font-size:282.52560425px;font-style:normal;font-variant:normal;font-weight:bold;font-stretch:normal;text-align:start;line-height:125%;writing-mode:lr-tb;text-anchor:start;fill:#0064b1;fill-opacity:1;font-family:Berlin Sans FB Demi;-inkscape-font-specification:Berlin Sans FB Demi Bold">I</tspan></text>
  </g>
</svg>
